<?xml version="1.0" encoding="UTF-8"?><svg id="a" xmlns="http://www.w3.org/2000/svg" viewBox="0 0 440.29 175"><path d="M206.5,37.95c-6.89,0-12.12-4.71-12.12-11.69V3.82h5.13v22.2c0,4.52,2.76,7.32,6.99,7.32s7.03-2.8,7.03-7.32V3.82h5.13v22.44c0,6.99-5.28,11.69-12.17,11.69Z" fill="#6d6e70"/><path d="M238.44,8.43v29.23h-5.13V8.43h-9.32V3.82h23.77v4.61h-9.32Z" fill="#6d6e70"/><path d="M270.18,37.66l-2.33-6.8h-13.36l-2.33,6.8h-5.47l12.41-33.84h4.14l12.41,33.84h-5.47ZM261.3,11.47l-5.28,15.02h10.41l-5.13-15.02Z" fill="#6d6e70"/><path d="M299.32,37.66v-14.78h-13.74v14.78h-5.13V3.82h5.13v14.45h13.74V3.82h5.13v33.84h-5.13Z" fill="#6d6e70"/><path d="M206.73,81.39c-5.09,0-8.75-1.19-11.98-4.47l3.42-3.37c2.47,2.47,5.18,3.23,8.65,3.23,4.42,0,6.99-1.9,6.99-5.18,0-1.47-.43-2.71-1.33-3.52-.86-.81-1.71-1.14-3.71-1.43l-3.99-.57c-2.76-.38-4.94-1.33-6.42-2.71-1.66-1.57-2.47-3.71-2.47-6.46,0-5.89,4.28-9.93,11.31-9.93,4.47,0,7.6,1.14,10.5,3.85l-3.28,3.23c-2.09-2-4.52-2.61-7.37-2.61-3.99,0-6.18,2.28-6.18,5.28,0,1.24.38,2.33,1.28,3.14.86.76,2.23,1.33,3.8,1.57l3.85.57c3.14.48,4.9,1.24,6.32,2.52,1.85,1.62,2.76,4.04,2.76,6.94,0,6.23-5.09,9.93-12.17,9.93Z" fill="#6d6e70"/><path d="M235.92,67.18v13.93h-5.13v-13.93l-10.12-19.92h5.61l7.08,14.88,7.08-14.88h5.61l-10.12,19.92Z" fill="#6d6e70"/><path d="M259.68,81.39c-5.09,0-8.75-1.19-11.98-4.47l3.42-3.37c2.47,2.47,5.18,3.23,8.65,3.23,4.42,0,6.99-1.9,6.99-5.18,0-1.47-.43-2.71-1.33-3.52-.86-.81-1.71-1.14-3.71-1.43l-3.99-.57c-2.76-.38-4.94-1.33-6.42-2.71-1.66-1.57-2.47-3.71-2.47-6.46,0-5.89,4.28-9.93,11.31-9.93,4.47,0,7.6,1.14,10.5,3.85l-3.28,3.23c-2.09-2-4.52-2.61-7.37-2.61-3.99,0-6.18,2.28-6.18,5.28,0,1.24.38,2.33,1.28,3.14.86.76,2.23,1.33,3.8,1.57l3.85.57c3.14.48,4.9,1.24,6.32,2.52,1.85,1.62,2.76,4.04,2.76,6.94,0,6.23-5.09,9.93-12.17,9.93Z" fill="#6d6e70"/><path d="M290.2,51.87v29.23h-5.13v-29.23h-9.32v-4.61h23.77v4.61h-9.32Z" fill="#6d6e70"/><path d="M305.36,81.11v-33.84h21.63v4.61h-16.49v9.89h14.07v4.56h-14.07v10.17h16.49v4.61h-21.63Z" fill="#6d6e70"/><path d="M358.74,81.11v-22.63l-7.8,16.49h-3.8l-7.99-16.49v22.63h-5.13v-33.84h5.13l9.89,21.06,9.7-21.06h5.13v33.84h-5.13Z" fill="#6d6e70"/><path d="M403.94,77.78c-2.33,2.33-5.32,3.61-8.94,3.61s-6.56-1.28-8.89-3.61c-3.33-3.33-3.28-7.08-3.28-13.59s-.05-10.27,3.28-13.59c2.33-2.33,5.28-3.61,8.89-3.61s6.61,1.28,8.94,3.61c3.33,3.33,3.23,7.08,3.23,13.59s.1,10.27-3.23,13.59ZM400.04,53.68c-1.19-1.28-3.04-2.09-5.04-2.09s-3.85.81-5.04,2.09c-1.66,1.81-2,3.71-2,10.5s.33,8.7,2,10.5c1.19,1.28,3.04,2.09,5.04,2.09s3.85-.81,5.04-2.09c1.66-1.81,2-3.71,2-10.5s-.33-8.7-2-10.5Z" fill="#6d6e70"/><path d="M419.91,51.87v10.31h14.07v4.61h-14.07v14.31h-5.13v-33.84h21.63v4.61h-16.49Z" fill="#6d6e70"/><path d="M213.77,124.55v-14.78h-13.74v14.78h-5.13v-33.84h5.13v14.45h13.74v-14.45h5.13v33.84h-5.13Z" fill="#6d6e70"/><path d="M227.74,124.55v-33.84h5.13v33.84h-5.13Z" fill="#6d6e70"/><path d="M261.96,120.98c-2.57,2.71-5.75,3.85-9.32,3.85s-6.56-1.28-8.89-3.61c-3.33-3.33-3.28-7.08-3.28-13.59s-.05-10.27,3.28-13.59c2.33-2.33,5.28-3.61,8.89-3.61,7.18,0,11.36,4.71,12.31,10.5h-5.18c-.86-3.71-3.33-5.89-7.13-5.89-2,0-3.8.81-4.99,2.09-1.66,1.81-2.04,3.71-2.04,10.5s.38,8.75,2.04,10.55c1.19,1.28,2.99,2.04,4.99,2.04,2.23,0,4.18-.86,5.51-2.38,1.24-1.43,1.71-3.14,1.71-5.32v-1.9h-7.22v-4.37h12.36v5.18c0,4.37-.81,7.18-3.04,9.55Z" fill="#6d6e70"/><path d="M291.43,124.55v-14.78h-13.74v14.78h-5.13v-33.84h5.13v14.45h13.74v-14.45h5.13v33.84h-5.13Z" fill="#6d6e70"/><path d="M305.41,124.55v-33.84h21.63v4.61h-16.49v9.89h14.07v4.56h-14.07v10.17h16.49v4.61h-21.63Z" fill="#6d6e70"/><path d="M352.75,124.55l-7.13-14.26h-6.42v14.26h-5.13v-33.84h13.12c6.42,0,10.5,4.14,10.5,9.89,0,4.85-2.95,7.94-6.75,8.98l7.8,14.97h-5.99ZM346.81,95.32h-7.6v10.6h7.6c3.42,0,5.75-1.95,5.75-5.28s-2.33-5.32-5.75-5.32Z" fill="#6d6e70"/><path d="M194.9,167.99v-33.84h21.63v4.61h-16.49v9.89h14.07v4.56h-14.07v10.17h16.49v4.61h-21.63Z" fill="#6d6e70"/><path d="M244.19,164.81c-2.14,2.14-5.23,3.18-8.75,3.18h-11.88v-33.84h11.88c3.52,0,6.61,1.05,8.75,3.18,3.66,3.66,3.42,8.6,3.42,13.5s.24,10.31-3.42,13.97ZM240.67,141.04c-1.43-1.57-3.33-2.28-5.75-2.28h-6.23v24.62h6.23c2.42,0,4.33-.71,5.75-2.28,1.76-1.95,1.81-5.61,1.81-10.27s-.05-7.84-1.81-9.79Z" fill="#6d6e70"/><path d="M266.81,168.28c-6.89,0-12.12-4.71-12.12-11.69v-22.44h5.13v22.2c0,4.52,2.76,7.32,6.99,7.32s7.03-2.8,7.03-7.32v-22.2h5.13v22.44c0,6.99-5.28,11.69-12.17,11.69Z" fill="#6d6e70"/><path d="M298.23,168.28c-3.52,0-6.56-1.28-8.89-3.61-3.33-3.33-3.28-7.08-3.28-13.59s-.05-10.27,3.28-13.59c2.33-2.33,5.37-3.61,8.89-3.61,6.23,0,10.88,3.66,12.07,10.41h-5.23c-.81-3.42-3.09-5.8-6.84-5.8-2,0-3.8.76-4.99,2.04-1.66,1.81-2.04,3.76-2.04,10.55s.38,8.75,2.04,10.55c1.19,1.28,2.99,2.04,4.99,2.04,3.76,0,6.08-2.38,6.89-5.8h5.18c-1.14,6.75-5.94,10.41-12.07,10.41Z" fill="#6d6e70"/><path d="M336.11,167.99l-2.33-6.8h-13.36l-2.33,6.8h-5.47l12.41-33.84h4.14l12.41,33.84h-5.47ZM327.22,141.8l-5.28,15.02h10.41l-5.13-15.02Z" fill="#6d6e70"/><path d="M354.98,138.76v29.23h-5.13v-29.23h-9.32v-4.61h23.77v4.61h-9.32Z" fill="#6d6e70"/><path d="M370.14,167.99v-33.84h5.13v33.84h-5.13Z" fill="#6d6e70"/><path d="M403.98,164.67c-2.33,2.33-5.32,3.61-8.94,3.61s-6.56-1.28-8.89-3.61c-3.33-3.33-3.28-7.08-3.28-13.59s-.05-10.27,3.28-13.59c2.33-2.33,5.28-3.61,8.89-3.61s6.61,1.28,8.94,3.61c3.33,3.33,3.23,7.08,3.23,13.59s.1,10.27-3.23,13.59ZM400.08,140.57c-1.19-1.28-3.04-2.09-5.04-2.09s-3.85.81-5.04,2.09c-1.66,1.81-2,3.71-2,10.5s.33,8.7,2,10.5c1.19,1.28,3.04,2.09,5.04,2.09s3.85-.81,5.04-2.09c1.66-1.81,2-3.71,2-10.5s-.33-8.7-2-10.5Z" fill="#6d6e70"/><path d="M435.59,167.99l-15.64-23.81v23.81h-5.13v-33.84h4.71l15.64,23.77v-23.77h5.13v33.84h-4.71Z" fill="#6d6e70"/><path d="M117.56,55.38C112.3,17.3,55.42,0,55.42,0l-31.49,34.8c59.14-22.55,93.64,20.58,93.64,20.58Z" fill="#007e9e"/><path d="M57.43,119.62c5.26,38.08,62.15,55.38,62.15,55.38l31.49-34.8c-59.14,22.55-93.64-20.58-93.64-20.58Z" fill="#007e9e"/><path d="M119.62,117.57c38.08-5.26,55.38-62.15,55.38-62.15l-34.8-31.49c22.55,59.14-20.58,93.64-20.58,93.64Z" fill="#ffaf3b"/><path d="M55.38,57.43C17.3,62.69,0,119.58,0,119.58l34.8,31.49c-22.55-59.14,20.58-93.64,20.58-93.64Z" fill="#ffaf3b"/><path d="M131.47,86.05c23.21-30.64-4.79-83.1-4.79-83.1l-46.87,2.34c57.76,25.87,51.66,80.77,51.66,80.77Z" fill="#a85332"/><path d="M43.53,88.95c-23.21,30.64,4.79,83.1,4.79,83.1l46.87-2.34c-57.76-25.87-51.66-80.77-51.66-80.77Z" fill="#a85332"/><path d="M88.95,131.47c30.64,23.21,83.1-4.79,83.1-4.79l-2.34-46.87c-25.87,57.76-80.77,51.66-80.77,51.66Z" fill="#a85332"/><path d="M86.05,43.53C55.4,20.32,2.94,48.31,2.94,48.31l2.34,46.87c25.87-57.76,80.77-51.66,80.77-51.66Z" fill="#a85332"/></svg>